<svg xmlns="http://www.w3.org/2000/svg" width="500" height="500" style="width:100%;height:100%;transform:translate3d(0,0,0);content-visibility:visible" viewBox="0 0 500 500"><defs><clipPath id="c"><path d="M0 0h500v500H0z"/></clipPath><clipPath id="b"><path d="M0 0h500v500H0z"/></clipPath><filter id="e" width="300%" height="300%" x="-100%" y="-100%"><feGaussianBlur result="filter_result_0" stdDeviation="52.5 52.5"/></filter><mask id="d" mask-type="alpha"><use xmlns:ns1="http://www.w3.org/1999/xlink" ns1:href="#a"/></mask><g id="a" fill-opacity="0" stroke="#121331" clip-path="url(#b)" style="display:block"><g stroke-width="12.95" style="display:block"><path stroke-linecap="round" stroke-linejoin="round" d="M153.337 313.363s-8.476 1.087-12.28 5.805c-5.957 7.385-5.831 19.632 15.055 19.632H331.4"/><path d="M169.062 338.8c15.316 0 27.75 12.435 27.75 27.75s-12.434 27.75-27.75 27.75c-15.315 0-27.75-12.435-27.75-27.75s12.435-27.75 27.75-27.75zm164.188 0c15.315 0 27.75 12.435 27.75 27.75s-12.435 27.75-27.75 27.75-27.75-12.435-27.75-27.75 12.435-27.75 27.75-27.75z"/></g><path stroke-linecap="round" stroke-linejoin="round" stroke-width="3.5" d="M-47-38h6.875c3.794 0 7.618 4.419 8.534 9.862L-24 17m-6.939-45.027 66.439.023L46.125-28s0 0 0 0c.345 0 .516.377.382.84 0 0 0 0 0 0l-3.028 10.446L38.409.77c-1.536 5.301-7.236 10.112-12.72 10.737l-39.378 4.486c-5.484.625-10.68 1.484-11.596 1.917 0 0-.631-.491-1.659.784" style="display:block" transform="matrix(3.7 0 0 3.7 240.75 250)"/></g></defs><g clip-path="url(#c)"><g mask="url(#d)" style="display:block"><g filter="url(#e)" transform="rotate(-94 262.075 8.435) scale(2.4)"><path fill="#EDC966" d="M0-250c137.975 0 250 112.025 250 250S137.975 250 0 250-250 137.975-250 0-137.975-250 0-250z" class="design"/><path fill="#C6C115" d="M113.242-295.384c97.478 0 176.5 79.022 176.5 176.5s-79.022 176.5-176.5 176.5c-43.948 0-74.396-34.057-105.29-60.631-37.631-32.369-71.21-62.338-71.21-115.869 0-97.478 79.022-176.5 176.5-176.5z" class="design"/></g></g><path style="display:none"/></g></svg>